<?xml version="1.0" standalone="no"?>
<!DOCTYPE svg PUBLIC "-//W3C//DTD SVG 20010904//EN"
 "http://www.w3.org/TR/2001/REC-SVG-20010904/DTD/svg10.dtd">
<svg version="1.0" xmlns="http://www.w3.org/2000/svg"
 width="128.000000pt" height="128.000000pt" viewBox="0 0 128.000000 128.000000"
 preserveAspectRatio="xMidYMid meet">
<metadata>
Created by potrace 1.14, written by Peter Selinger 2001-2017
</metadata>
<g transform="translate(0.000000,128.000000) scale(0.100000,-0.100000)"
fill="#000000" stroke="none">
<path d="M1028 1216 c-1 -2 -32 -6 -68 -10 -161 -16 -355 -53 -595 -113 -77
-19 -147 -36 -155 -38 -53 -11 -118 -29 -133 -37 -52 -27 -56 -128 -11 -315
22 -93 24 -128 25 -316 1 -233 8 -266 57 -286 28 -11 917 -15 979 -5 45 8 62
48 61 152 l0 83 37 32 c45 39 47 62 16 162 -12 39 -24 84 -27 100 -2 17 -7 38
-10 47 -12 41 -15 69 -15 157 0 93 -7 122 -38 151 -9 8 -30 62 -46 119 -24 82
-35 106 -52 112 -11 4 -23 6 -25 5z"/>
</g>
</svg>
